<svg xmlns="http://www.w3.org/2000/svg" viewBox="0 0 512 512"><defs><radialGradient id="bg" cx="50%" cy="45%" r="75%"><stop offset="0" stop-color="#1E2F29"/><stop offset="1" stop-color="#0D1512"/></radialGradient>
<linearGradient id="gold" x1="0" y1="0" x2="0" y2="1"><stop offset="0" stop-color="#F6D27E"/><stop offset="1" stop-color="#E8B34C"/></linearGradient></defs>
<rect width="512" height="512" fill="url(#bg)"/><circle cx="256" cy="256" r="176" fill="none" stroke="url(#gold)" stroke-width="12"/><g transform="translate(256.0 80.0) rotate(0)"><circle r="34.5" fill="#0D1512"/><g fill="url(#gold)" stroke="#0D1512" stroke-width="0" paint-order="stroke">
<circle cx="0" cy="-13.5" r="11.4"/><path d="M-20.400000000000002 25.5 C-20.400000000000002 3 -12 0 0 0 C12 0 20.400000000000002 3 20.400000000000002 25.5 Z"/></g></g><g transform="translate(408.4 168.0) rotate(0)"><circle r="34.5" fill="#0D1512"/><g fill="url(#gold)" stroke="#0D1512" stroke-width="0" paint-order="stroke">
<circle cx="0" cy="-13.5" r="11.4"/><path d="M-20.400000000000002 25.5 C-20.400000000000002 3 -12 0 0 0 C12 0 20.400000000000002 3 20.400000000000002 25.5 Z"/></g></g><g transform="translate(408.4 344.0) rotate(0)"><circle r="34.5" fill="#0D1512"/><g fill="url(#gold)" stroke="#0D1512" stroke-width="0" paint-order="stroke">
<circle cx="0" cy="-13.5" r="11.4"/><path d="M-20.400000000000002 25.5 C-20.400000000000002 3 -12 0 0 0 C12 0 20.400000000000002 3 20.400000000000002 25.5 Z"/></g></g><g transform="translate(256.0 432.0) rotate(0)"><circle r="34.5" fill="#0D1512"/><g fill="url(#gold)" stroke="#0D1512" stroke-width="0" paint-order="stroke">
<circle cx="0" cy="-13.5" r="11.4"/><path d="M-20.400000000000002 25.5 C-20.400000000000002 3 -12 0 0 0 C12 0 20.400000000000002 3 20.400000000000002 25.5 Z"/></g></g><g transform="translate(103.6 344.0) rotate(0)"><circle r="34.5" fill="#0D1512"/><g fill="url(#gold)" stroke="#0D1512" stroke-width="0" paint-order="stroke">
<circle cx="0" cy="-13.5" r="11.4"/><path d="M-20.400000000000002 25.5 C-20.400000000000002 3 -12 0 0 0 C12 0 20.400000000000002 3 20.400000000000002 25.5 Z"/></g></g><g transform="translate(103.6 168.0) rotate(0)"><circle r="34.5" fill="#0D1512"/><g fill="url(#gold)" stroke="#0D1512" stroke-width="0" paint-order="stroke">
<circle cx="0" cy="-13.5" r="11.4"/><path d="M-20.400000000000002 25.5 C-20.400000000000002 3 -12 0 0 0 C12 0 20.400000000000002 3 20.400000000000002 25.5 Z"/></g></g><text x="256" y="350" text-anchor="middle" font-family="Rajdhani" font-weight="700" font-size="270" fill="#F3F1EA">P</text></svg>