<svg xmlns="http://www.w3.org/2000/svg" viewBox="0 0 1024 1024"><defs><radialGradient id="bg" cx=".5" cy=".38" r=".8"><stop offset="0" stop-color="#1e2f29"/><stop offset="1" stop-color="#0d1512"/></radialGradient></defs><rect width="1024" height="1024" fill="url(#bg)"/><defs>
 <linearGradient id="m0r" x1="0.15" y1="0.05" x2="0.85" y2="0.95"><stop offset="0" stop-color="#FFF1B5"/><stop offset=".45" stop-color="#F2C34E"/><stop offset="1" stop-color="#A86A12"/></linearGradient>
 <linearGradient id="m0f" x1="0.2" y1="0.05" x2="0.8" y2="0.95"><stop offset="0" stop-color="#26392f"/><stop offset="1" stop-color="#0d1512"/></linearGradient>
 <linearGradient id="m0g" x1="0" y1="0" x2="0" y2="1"><stop offset="0" stop-color="#fff" stop-opacity="0.14"/><stop offset="1" stop-color="#fff" stop-opacity="0"/></linearGradient>
 <filter id="m0d" x="-30%" y="-30%" width="160%" height="160%"><feGaussianBlur stdDeviation="24"/></filter>
 <filter id="m0i"><feGaussianBlur stdDeviation="16"/></filter>
 <clipPath id="m0c"><circle cx="512" cy="512" r="264"/></clipPath></defs>
 <circle cx="512" cy="540" r="330" fill="#000" opacity="0.55" filter="url(#m0d)"/>
 <circle cx="512" cy="512" r="330" fill="#6E4508"/>
 <circle cx="512" cy="512" r="315.15" fill="url(#m0r)"/>
 <circle cx="512" cy="512" r="272" fill="#000" opacity=".35"/>
 <circle cx="512" cy="512" r="264" fill="url(#m0f)"/>
 <g clip-path="url(#m0c)"><rect x="130" y="0" width="33" height="1024" fill="#3fa66b" opacity=".14"/><rect x="196" y="0" width="33" height="1024" fill="#3fa66b" opacity=".14"/><rect x="262" y="0" width="33" height="1024" fill="#3fa66b" opacity=".14"/><rect x="328" y="0" width="33" height="1024" fill="#3fa66b" opacity=".14"/><rect x="394" y="0" width="33" height="1024" fill="#3fa66b" opacity=".14"/><rect x="460" y="0" width="33" height="1024" fill="#3fa66b" opacity=".14"/><rect x="526" y="0" width="33" height="1024" fill="#3fa66b" opacity=".14"/><rect x="592" y="0" width="33" height="1024" fill="#3fa66b" opacity=".14"/><rect x="658" y="0" width="33" height="1024" fill="#3fa66b" opacity=".14"/><rect x="724" y="0" width="33" height="1024" fill="#3fa66b" opacity=".14"/><rect x="790" y="0" width="33" height="1024" fill="#3fa66b" opacity=".14"/><rect x="856" y="0" width="33" height="1024" fill="#3fa66b" opacity=".14"/><circle cx="512" cy="512" r="150" fill="none" stroke="#f3f1ea" stroke-opacity=".18" stroke-width="10"/><line x1="0" y1="512" x2="1024" y2="512" stroke="#f3f1ea" stroke-opacity=".18" stroke-width="10"/></g>
 <g clip-path="url(#m0c)"><circle cx="512" cy="524" r="270" fill="none" stroke="#000" stroke-opacity=".5" stroke-width="34" filter="url(#m0i)"/></g>
 <ellipse cx="512" cy="363.5" rx="204.6" ry="118.8" fill="url(#m0g)" clip-path="url(#m0c)"/>
 <path d="M307.4 413 A227.7 227.7 0 0 1 452.6 290.9" stroke="#fff" stroke-opacity=".45" stroke-width="9.9" stroke-linecap="round" fill="none"/><defs><linearGradient id="p1b" x1="0" y1="0" x2="0" y2="1"><stop offset="0" stop-color="#f3f1ea"/><stop offset="1" stop-color="#cfd3cc"/></linearGradient>
 <filter id="p1s" x="-50%" y="-50%" width="200%" height="200%"><feGaussianBlur stdDeviation="1.3"/></filter></defs>
 <g transform="translate(490,512) scale(9) translate(-34.75,-32)" fill-rule="evenodd">
  <path d="M24 17 H35.5 A9.5 9.5 0 0 1 35.5 36 H31 V47 H24 Z M31 23 V30 H35 A3.5 3.5 0 0 0 35 23 Z" fill="#000" opacity="0.55" filter="url(#p1s)" transform="translate(0.4,2)"/>
  <path d="M24 17 H35.5 A9.5 9.5 0 0 1 35.5 36 H31 V47 H24 Z M31 23 V30 H35 A3.5 3.5 0 0 0 35 23 Z" fill="#000" transform="translate(0.7,0.9)"/>
  <path d="M24 17 H35.5 A9.5 9.5 0 0 1 35.5 36 H31 V47 H24 Z M31 23 V30 H35 A3.5 3.5 0 0 0 35 23 Z" fill="#ffffff" transform="translate(-0.5,-0.6)"/>
  <path d="M24 17 H35.5 A9.5 9.5 0 0 1 35.5 36 H31 V47 H24 Z M31 23 V30 H35 A3.5 3.5 0 0 0 35 23 Z" fill="url(#p1b)"/>
 </g><defs><clipPath id="b2"><circle cx="610" cy="600" r="66"/></clipPath><radialGradient id="b2g" cx=".35" cy=".3" r=".8"><stop offset="0" stop-color="#fff"/><stop offset="1" stop-color="#c9ccc4"/></radialGradient><filter id="b2s" x="-50%" y="-50%" width="200%" height="200%"><feGaussianBlur stdDeviation="9.9"/></filter></defs><circle cx="610" cy="607.92" r="67.32000000000001" fill="#000" opacity=".5" filter="url(#b2s)"/><circle cx="610" cy="600" r="66" fill="url(#b2g)"/><g clip-path="url(#b2)" fill="#0d1512"><polygon points="610.0,580.2 628.8,593.9 621.6,616.0 598.4,616.0 591.2,593.9"/><polygon points="610.0,549.8 593.7,538.0 599.9,518.8 620.1,518.8 626.3,538.0"/><polygon points="657.7,584.5 663.9,565.3 684.1,565.3 690.3,584.5 674.0,596.4"/><polygon points="639.5,640.6 659.7,640.6 665.9,659.8 649.6,671.6 633.2,659.8"/><polygon points="580.5,640.6 586.8,659.8 570.4,671.6 554.1,659.8 560.3,640.6"/><polygon points="562.3,584.5 546.0,596.4 529.7,584.5 535.9,565.3 556.1,565.3"/></g><g clip-path="url(#b2)" stroke="#0d1512" stroke-width="3.96"><line x1="610" y1="583.5" x2="610" y2="552.48"/><line x1="625.6924325188701" y1="594.9012195928134" x2="655.1942056543458" y2="585.3155124273025"/><line x1="619.6984566628258" y1="613.3487804071866" x2="637.9315551889383" y2="638.4444875726975"/><line x1="600.3015433371742" y1="613.3487804071866" x2="582.0684448110617" y2="638.4444875726975"/><line x1="594.3075674811299" y1="594.9012195928134" x2="564.8057943456542" y2="585.3155124273025"/></g><circle cx="610" cy="600" r="66" fill="none" stroke="#000" stroke-opacity=".25" stroke-width="3.3000000000000003"/></svg>